<svg width="18" height="11" viewBox="0 0 18 11" fill="none" xmlns="http://www.w3.org/2000/svg">
<path d="M9 3.40625C9.59674 3.40625 10.169 3.61367 10.591 3.98288C11.0129 4.3521 11.25 4.85286 11.25 5.375C11.25 5.89715 11.0129 6.3979 10.591 6.76712C10.169 7.13633 9.59674 7.34375 9 7.34375C8.40326 7.34375 7.83097 7.13633 7.40901 6.76712C6.98705 6.3979 6.75 5.89715 6.75 5.375C6.75 4.85286 6.98705 4.3521 7.40901 3.98288C7.83097 3.61367 8.40326 3.40625 9 3.40625ZM9 0.453125C12.75 0.453125 15.9525 2.49406 17.25 5.375C15.9525 8.25594 12.75 10.2969 9 10.2969C5.25 10.2969 2.0475 8.25594 0.75 5.375C2.0475 2.49406 5.25 0.453125 9 0.453125ZM2.385 5.375C3.6225 7.58 6.18 8.98438 9 8.98438C11.82 8.98438 14.3775 7.58 15.615 5.375C14.3775 3.17 11.82 1.76563 9 1.76563C6.18 1.76563 3.6225 3.17 2.385 5.375Z" fill="#000000"/>
</svg>
