<svg width="14" height="14" viewBox="0 0 14 14" fill="none" xmlns="http://www.w3.org/2000/svg">
<path d="M12.75 0.75H1.25C0.973437 0.75 0.75 0.973437 0.75 1.25V12.75C0.75 13.0266 0.973437 13.25 1.25 13.25H6.875C6.94375 13.25 7 13.1938 7 13.125V12.25C7 12.1812 6.94375 12.125 6.875 12.125H1.875V1.875H12.125V6.875C12.125 6.94375 12.1812 7 12.25 7H13.125C13.1938 7 13.25 6.94375 13.25 6.875V1.25C13.25 0.973437 13.0266 0.75 12.75 0.75ZM9.20781 8.36563L10.0234 7.55C10.04 7.5334 10.0515 7.51249 10.0567 7.48965C10.0619 7.46682 10.0607 7.44298 10.053 7.42084C10.0454 7.3987 10.0316 7.37915 10.0134 7.36442C9.99523 7.34969 9.97325 7.34036 9.95 7.3375L7.14688 7.00937C7.06719 7 6.99844 7.06719 7.00781 7.14844L7.33594 9.95156C7.34844 10.0547 7.475 10.0984 7.54844 10.025L8.36719 9.20625L12.3703 13.2094C12.4187 13.2578 12.4984 13.2578 12.5469 13.2094L13.2094 12.5469C13.2578 12.4984 13.2578 12.4187 13.2094 12.3703L9.20781 8.36563Z" fill="#000000"/>
</svg>
