<?xml version="1.0" encoding="UTF-8" standalone="no"?>
<!DOCTYPE svg PUBLIC "-//W3C//DTD SVG 1.1//EN" "http://www.w3.org/Graphics/SVG/1.1/DTD/svg11.dtd">
<svg version="1.1" xmlns="http://www.w3.org/2000/svg" xmlns:xlink="http://www.w3.org/1999/xlink" preserveAspectRatio="xMidYMid meet" viewBox="0 0 48 48" width="48" height="48"><defs><path d="M8.63 16.93C10.53 10.47 16.47 5.72 23.51 5.63C23.51 5.21 23.51 1.84 23.51 1.41C23.51 1.18 23.8 1.05 24 1.2C24.87 1.83 31.82 6.94 32.69 7.58C32.83 7.69 32.83 7.9 32.69 8.01C31.82 8.64 24.87 13.75 24.01 14.39C23.8 14.53 23.52 14.41 23.52 14.17C23.52 13.75 23.52 10.38 23.52 9.96C18.89 10.03 14.93 12.89 13.23 16.93C12.59 18.45 12.26 20.14 12.35 21.9C12.48 24.33 13.39 26.57 14.83 28.38C15.6 29.34 15.42 30.75 14.42 31.48C13.48 32.17 12.15 31.98 11.42 31.06C9.64 28.83 8.45 26.12 8.1 23.15C7.85 20.97 8.06 18.87 8.63 16.93ZM35.67 21.52C35.76 23.29 35.42 24.98 34.79 26.49C33.09 30.53 29.13 33.4 24.5 33.46C24.5 33.04 24.5 29.67 24.5 29.25C24.5 29.01 24.21 28.89 24.01 29.03C23.15 29.67 16.2 34.78 15.33 35.41C15.18 35.52 15.18 35.74 15.33 35.84C16.19 36.48 23.14 41.59 24.01 42.22C24.21 42.37 24.49 42.24 24.49 42.01C24.49 41.58 24.49 38.21 24.49 37.79C31.54 37.71 37.49 32.96 39.37 26.49C39.94 24.55 40.14 22.45 39.9 20.27C39.56 17.3 38.37 14.59 36.59 12.36C35.85 11.44 34.54 11.25 33.59 11.94C32.6 12.67 32.42 14.08 33.19 15.04C34.64 16.84 35.55 19.09 35.67 21.52Z" id="b4qq6H317o"></path></defs><g><g><g><use xlink:href="#b4qq6H317o" opacity="1" fill="#000000" fill-opacity="1"></use><g><use xlink:href="#b4qq6H317o" opacity="1" fill-opacity="0" stroke="#000000" stroke-width="1" stroke-opacity="0"></use></g></g></g></g></svg>